<svg width="125" height="124" viewBox="0 0 125 124" fill="none" xmlns="http://www.w3.org/2000/svg">
<g filter="url(#filter0_d_2106_18155)">
<rect x="30.1553" y="12" width="64" height="64" rx="15" fill="white" shape-rendering="crispEdges"/>
<rect x="30.6553" y="12.5" width="63" height="63" rx="14.5" stroke="#E0E0E9" shape-rendering="crispEdges"/>
<path d="M77.4846 52.9377C76.9101 54.0557 76.23 55.0848 75.4421 56.031C74.3681 57.3208 73.4887 58.2136 72.811 58.7094C71.7604 59.5232 70.6348 59.94 69.4295 59.9637C68.5642 59.9637 67.5207 59.7563 66.3059 59.3355C65.0872 58.9168 63.9673 58.7094 62.9432 58.7094C61.8692 58.7094 60.7173 58.9168 59.4852 59.3355C58.2513 59.7563 57.2573 59.9755 56.4972 59.9973C55.3414 60.0387 54.1893 59.6101 53.0393 58.7094C52.3053 58.1702 51.3872 57.2457 50.2874 55.9361C49.1074 54.5377 48.1373 52.916 47.3773 51.0672C46.5633 49.0702 46.1553 47.1364 46.1553 45.2643C46.1553 43.1197 46.7054 41.2701 47.8073 39.7201C48.6733 38.4751 49.8254 37.493 51.2674 36.7721C52.7093 36.0511 54.2674 35.6837 55.9452 35.6602C56.8633 35.6602 58.0672 35.8994 59.5633 36.3695C61.0552 36.8412 62.0132 37.0804 62.4332 37.0804C62.7472 37.0804 63.8113 36.8007 65.6153 36.2431C67.3213 35.726 68.7612 35.5119 69.9407 35.5962C73.137 35.8135 75.5382 36.8748 77.1352 38.7868C74.2766 40.2458 72.8626 42.2891 72.8907 44.9105C72.9165 46.9523 73.7959 48.6514 75.5242 50.0005C76.3074 50.6267 77.1821 51.1106 78.1553 51.4543C77.9442 51.9698 77.7215 52.4637 77.4846 52.9377ZM70.1541 28.6402C70.1541 30.2405 69.46 31.7348 68.0764 33.1179C66.4068 34.7621 64.3873 35.7122 62.1973 35.5622C62.1693 35.3702 62.1532 35.1682 62.1532 34.9558C62.1532 33.4195 62.9472 31.7753 64.3572 30.4309C65.0612 29.7503 65.9565 29.1843 67.0423 28.7328C68.1257 28.2881 69.1504 28.0421 70.1142 28C70.1424 28.2139 70.1541 28.4279 70.1541 28.6402Z" fill="black"/>
</g>
<defs>
<filter id="filter0_d_2106_18155" x="0.155273" y="0" width="124" height="124" filterUnits="userSpaceOnUse" color-interpolation-filters="sRGB">
<feFlood flood-opacity="0" result="BackgroundImageFix"/>
<feColorMatrix in="SourceAlpha" type="matrix" values="0 0 0 0 0 0 0 0 0 0 0 0 0 0 0 0 0 0 127 0" result="hardAlpha"/>
<feOffset dy="18"/>
<feGaussianBlur stdDeviation="15"/>
<feComposite in2="hardAlpha" operator="out"/>
<feColorMatrix type="matrix" values="0 0 0 0 0.266667 0 0 0 0 0.380392 0 0 0 0 0.94902 0 0 0 0.11 0"/>
<feBlend mode="normal" in2="BackgroundImageFix" result="effect1_dropShadow_2106_18155"/>
<feBlend mode="normal" in="SourceGraphic" in2="effect1_dropShadow_2106_18155" result="shape"/>
</filter>
</defs>
</svg>
